<svg xmlns="http://www.w3.org/2000/svg" width="233" height="79" viewBox="0 0 233 79">
  <g fill="#0052CC" fill-rule="evenodd" transform="translate(0 -1)">
    <path d="M22.1652407 28.2919922L8.05488281 28.2919922C8.07249883 29.926766 8.40279416 31.3681578 9.04577873 32.6162109 9.6887633 33.8642641 10.5431272 34.8046843 11.6088962 35.4375 12.6746651 36.0703157 13.8505165 36.3867188 15.1364856 36.3867188 15.9996704 36.3867188 16.7879753 36.2856455 17.5014239 36.0834961 18.2148725 35.8813466 18.9062908 35.5649436 19.5756993 35.1342773 20.2451079 34.7036111 20.8616592 34.24219 21.4253717 33.75 21.9890842 33.25781 22.7201379 32.589848 23.6185547 31.7460938 23.988491 31.4296859 24.5169636 31.2714844 25.2039882 31.2714844 25.9438608 31.2714844 26.5427963 31.4736308 27.0008128 31.8779297 27.4588292 32.2822286 27.6878339 32.8535119 27.6878339 33.5917969 27.6878339 34.2421908 27.4324055 35.0024371 26.9215411 35.8725586 26.4106766 36.7426801 25.6399875 37.5776327 24.6094506 38.3774414 23.5789137 39.1772501 22.284156 39.8408177 20.7251386 40.3681641 19.1661212 40.8955104 17.3737185 41.1591797 15.3478768 41.1591797 10.7148647 41.1591797 7.11244356 39.8408335 4.54050529 37.2041016 1.96856703 34.5673696.682617188 30.990257.682617188 26.4726562.682617188 24.3456925.99970071 22.3725677 1.63387727 20.5532227 2.26805383 18.7338776 3.19288077 17.1738346 4.40838584 15.8730469 5.62389091 14.5722591 7.12122976 13.5747105 8.90044733 12.8803711 10.6796649 12.1860317 12.652629 11.8388672 14.8193989 11.8388672 17.6379614 11.8388672 20.0557233 12.432123 22.0727571 13.6186523 24.0897908 14.8051817 25.6003415 16.3388578 26.6044544 18.2197266 27.6085673 20.1005953 28.1106162 22.0165918 28.1106162 23.9677734 28.1106162 25.7783294 27.5909515 26.9516575 26.5516066 27.487793 25.5122617 28.0239285 24.0501543 28.2919922 22.1652407 28.2919922zM8.05488281 24.2050781L21.1347089 24.2050781C20.9585488 21.7441283 20.2935542 19.9028381 19.1397051 18.6811523 17.9858561 17.4594665 16.4664976 16.8486328 14.5815839 16.8486328 12.7847503 16.8486328 11.3094312 17.4682555 10.1555822 18.7075195 9.00173314 19.9467835 8.30150703 21.7792847 8.05488281 24.2050781zM53.9531817 37.0458984L53.9531817 36.3339844C52.9843009 37.4414118 52.0286463 38.3422817 51.0861895 39.0366211 50.1437327 39.7309605 49.1220191 40.258299 48.0210181 40.6186523 46.9200172 40.9790057 45.7177422 41.1591797 44.414157 41.1591797 42.6877875 41.1591797 41.0891581 40.7944372 39.6182208 40.0649414 38.1472835 39.3354456 36.8745454 38.2939521 35.7999685 36.9404297 34.7253916 35.5869073 33.9106631 33.9961029 33.3557586 32.1679688 32.8008541 30.3398346 32.523406 28.3623153 32.523406 26.2353516 32.523406 21.7353291 33.6243905 18.2285282 35.8263924 15.7148438 38.0283943 13.2011593 40.9261854 11.9443359 44.5198526 11.9443359 46.5985424 11.9443359 48.3513096 12.3002894 49.7782069 13.012207 51.2051042 13.7241247 52.5967485 14.818352 53.9531817 16.2949219L53.9531817 5.66894531C53.9531817 4.19237543 54.2482455 3.07617565 54.8383821 2.3203125 55.4285186 1.56444935 56.2696707 1.18652344 57.3618637 1.18652344 58.4540566 1.18652344 59.2952087 1.53368793 59.8853453 2.22802734 60.4754818 2.92236675 60.7705456 3.94628229 60.7705456 5.29980469L60.7705456 37.0458984C60.7705456 38.416999 60.4534621 39.4453091 59.8192855 40.1308594 59.185109 40.8164097 58.3659765 41.1591797 57.3618637 41.1591797 56.3753668 41.1591797 55.5606383 40.8032262 54.9176537 40.0913086 54.2746692 39.379391 53.9531817 38.3642644 53.9531817 37.0458984zM39.7635522 26.4726562C39.7635522 28.4238379 40.0674239 30.0849541 40.6751764 31.4560547 41.2829289 32.8271553 42.1152732 33.8598598 43.1722341 34.5541992 44.2291951 35.2485386 45.3830268 35.5957031 46.6337639 35.5957031 47.902117 35.5957031 49.0603526 35.2661166 50.1085055 34.6069336 51.1566585 33.9477506 51.9934067 32.9370185 52.6187752 31.574707 53.2441438 30.2123955 53.5568233 28.5117289 53.5568233 26.4726562 53.5568233 24.556631 53.2441438 22.9086983 52.6187752 21.5288086 51.9934067 20.1489189 51.1478506 19.0942419 50.0820817 18.3647461 49.0163127 17.6352503 47.8492692 17.2705078 46.5809161 17.2705078 45.2597149 17.2705078 44.0794596 17.6440392 43.0401147 18.3911133 42.0007698 19.1381873 41.1948491 20.2104422 40.6223286 21.6079102 40.0498081 23.0053781 39.7635522 24.6269439 39.7635522 26.4726562zM86.7452306 37.0986328L86.7452306 36.1757812C85.8820458 37.2656304 84.9748346 38.1796838 84.0235698 38.9179688 83.072305 39.6562537 82.0329756 40.2055646 80.9055507 40.565918 79.7781257 40.9262713 78.4921758 41.1064453 77.0476626 41.1064453 75.303677 41.1064453 73.7402791 40.7460974 72.3574219 40.0253906 70.9745647 39.3046839 69.9044078 38.3115298 69.1469191 37.0458984 68.2485023 35.5165939 67.7993007 33.3193503 67.7993007 30.4541016L67.7993007 16.1894531C67.7993007 14.7480397 68.1251921 13.6713903 68.7769846 12.9594727 69.4287772 12.247555 70.291949 11.8916016 71.366526 11.8916016 72.4587189 11.8916016 73.3395065 12.2519495 74.0089151 12.9726562 74.6783237 13.693363 75.0130229 14.7656179 75.0130229 16.1894531L75.0130229 27.7119141C75.0130229 29.3818443 75.1539489 30.7836857 75.4358052 31.9174805 75.7176614 33.0512752 76.2241143 33.9389616 76.9551789 34.5805664 77.6862436 35.2221712 78.6771296 35.5429688 79.9278667 35.5429688 81.1433718 35.5429688 82.2883956 35.1826208 83.3629725 34.4619141 84.4375495 33.7412073 85.2214504 32.8007871 85.7146988 31.640625 86.1198672 30.6210887 86.3224483 28.3886891 86.3224483 24.9433594L86.3224483 16.1894531C86.3224483 14.7656179 86.6571476 13.693363 87.3265562 12.9726562 87.9959648 12.2519495 88.8679445 11.8916016 89.9425214 11.8916016 91.0170984 11.8916016 91.8802702 12.247555 92.5320628 12.9594727 93.1838553 13.6713903 93.5097467 14.7480397 93.5097467 16.1894531L93.5097467 37.0458984C93.5097467 38.416999 93.1970671 39.4453091 92.5716986 40.1308594 91.94633 40.8164097 91.1404094 41.1591797 90.1539126 41.1591797 89.1674157 41.1591797 88.3526872 40.8032262 87.7097026 40.0913086 87.0667181 39.379391 86.7452306 38.3818424 86.7452306 37.0986328zM107.85792 30.7705078L107.85792 36.7822266C107.85792 38.2412182 107.514412 39.3354456 106.827388 40.0649414 106.140363 40.7944372 105.268384 41.1591797 104.211423 41.1591797 103.172078 41.1591797 102.317714 40.7900428 101.648305 40.0517578 100.978897 39.3134729 100.644197 38.22364 100.644197 36.7822266L100.644197 16.7431641C100.644197 13.5087729 101.815645 11.8916016 104.158575 11.8916016 105.356464 11.8916016 106.219636 12.2695275 106.748116 13.0253906 107.276597 13.7812538 107.567257 14.8974536 107.620105 16.3740234 108.483289 14.8974536 109.368481 13.7812538 110.275706 13.0253906 111.18293 12.2695275 112.394013 11.8916016 113.908991 11.8916016 115.423968 11.8916016 116.894883 12.2695275 118.32178 13.0253906 119.748678 13.7812538 120.462116 14.7831969 120.462116 16.03125 120.462116 16.9101606 120.158244 17.635251 119.550491 18.206543 118.942739 18.7778349 118.286552 19.0634766 117.581912 19.0634766 117.317671 19.0634766 116.6791 18.9008805 115.666179 18.5756836 114.653259 18.2504867 113.759259 18.0878906 112.984154 18.0878906 111.927194 18.0878906 111.064022 18.3647433 110.394613 18.918457 109.725205 19.4721707 109.20554 20.2939399 108.835604 21.3837891 108.465667 22.4736383 108.210239 23.770012 108.069311 25.2729492 107.928383 26.7758864 107.85792 28.6083876 107.85792 30.7705078zM216.03733 27.0527344L216.03733 36.6240234C216.03733 38.1357497 215.693823 39.2695275 215.006798 40.0253906 214.319774 40.7812538 213.412562 41.1591797 212.285137 41.1591797 211.192944 41.1591797 210.307753 40.7812538 209.629536 40.0253906 208.95132 39.2695275 208.612216 38.1357497 208.612216 36.6240234L208.612216 25.1542969C208.612216 23.3437409 208.550561 21.937505 208.427249 20.9355469 208.303937 19.9335887 207.969238 19.1118196 207.423141 18.4702148 206.877045 17.8286101 206.013873 17.5078125 204.8336 17.5078125 202.473054 17.5078125 200.918464 18.3163982 200.169783 19.9335938 199.421103 21.5507893 199.046768 23.8710786 199.046768 26.8945312L199.046768 36.6240234C199.046768 38.1181715 198.707665 39.2475548 198.029448 40.012207 197.351231 40.7768593 196.457232 41.1591797 195.347423 41.1591797 194.25523 41.1591797 193.361231 40.7768593 192.665398 40.012207 191.969566 39.2475548 191.621654 38.1181715 191.621654 36.6240234L191.621654 16.03125C191.621654 14.6777276 191.934334 13.6494176 192.559703 12.9462891 193.185071 12.2431605 194.008608 11.8916016 195.030336 11.8916016 196.016833 11.8916016 196.84037 12.2211881 197.50097 12.8803711 198.161571 13.5395541 198.491866 14.4492129 198.491866 15.609375L198.491866 16.2949219C199.742603 14.8007738 201.0814 13.702152 202.508298 12.9990234 203.935195 12.2958949 205.520612 11.9443359 207.264598 11.9443359 209.079048 11.9443359 210.638042 12.3046839 211.941627 13.0253906 213.245212 13.7460974 214.319773 14.8359302 215.165341 16.2949219 216.380847 14.818352 217.684412 13.7241247 219.076077 13.012207 220.467743 12.3002894 222.009121 11.9443359 223.700258 11.9443359 225.673252 11.9443359 227.373172 12.3310508 228.800069 13.1044922 230.226967 13.8779336 231.29272 14.9853444 231.99736 16.4267578 232.613921 17.7275456 232.922196 19.7753767 232.922196 22.5703125L232.922196 36.6240234C232.922196 38.1357497 232.578689 39.2695275 231.891665 40.0253906 231.20464 40.7812538 230.297429 41.1591797 229.170004 41.1591797 228.077811 41.1591797 227.183811 40.7768593 226.487979 40.012207 225.792146 39.2475548 225.444235 38.1181715 225.444235 36.6240234L225.444235 24.5214844C225.444235 22.9746016 225.378176 21.7353562 225.246056 20.8037109 225.113936 19.8720657 224.757217 19.0898469 224.175888 18.4570312 223.59456 17.8242156 222.713772 17.5078125 221.533499 17.5078125 220.582234 17.5078125 219.679427 17.7890597 218.82505 18.3515625 217.970674 18.9140653 217.305679 19.6699171 216.830047 20.6191406 216.301566 21.8320373 216.03733 23.9765471 216.03733 27.0527344zM141.23423 11.6865234C145.566026 11.6865234 149.079617 13.6612305 151.676952 16.2802734 154.274287 18.8993163 156.139653 22.0927734 157.924734 25.0927734 159.709815 28.0927734 161.41461 30.8993154 163.279976 32.7802734 165.145342 34.6612314 166.986994 35.6865234 169.79552 35.6865234 174.521114 35.6865234 178.363908 31.6501584 178.363908 26.6865234 178.363908 21.5865234 174.65094 17.6865234 169.79552 17.6865234 165.79694 17.6865234 163.054469 19.7847011 160.483953 23.6847011 158.781843 23.6847011 158.403472 23.4311371 157.924734 23.2695465 156.942674 22.9263836 155.857045 20.5927734 157.210702 18.6240234 160.352444 14.7240234 164.083262 11.6865234 169.79552 11.6865234 177.792682 11.6865234 184.076166 18.2865234 184.076166 26.6865234 184.076166 34.9228884 177.636894 41.6865234 169.79552 41.6865234 165.463724 41.6865234 161.950134 39.7118154 159.352799 37.0927734 156.755463 34.4737314 154.890097 31.2802734 153.105016 28.2802734 151.319936 25.2802734 149.615141 22.4737314 147.749774 20.5927734 145.884408 18.7118163 144.042757 17.6865234 141.23423 17.6865234 136.508635 17.6865234 132.665843 21.7228884 132.665843 26.6865234 132.665843 31.7865234 136.378811 35.6865234 141.23423 35.6865234 145.232811 35.6865234 147.767625 33.0052734 150.338141 29.4052734 151.676952 29.7420292 152.286695 30.2406464 152.363397 30.2972717 153.582651 31.3281861 154.249716 32.7802734 153.809353 34.6686946 150.667611 38.5686946 146.946488 41.6865234 141.23423 41.6865234 133.237069 41.6865234 126.953585 35.0865234 126.953585 26.6865234 126.953585 18.4501599 133.392858 11.6865234 141.23423 11.6865234zM34.4960761 76.2174671C32.4102909 76.2174671 30.7991216 75.6061163 29.6625198 74.3833965 28.525918 73.1606767 27.9576257 71.4292711 27.9576257 69.1891276 27.9576257 66.9550223 28.536498 65.2221071 29.6942599 63.9903301 30.8520218 62.7585531 32.4828395 62.1426739 34.5867619 62.1426739 35.789867 62.1426739 37.1985066 62.3389099 38.8127229 62.7313879L38.8127229 64.5156441C36.9748137 63.8816413 35.5571056 63.5646446 34.5595562 63.5646446 33.1025294 63.5646446 31.9750132 64.0567442 31.1769736 65.0409582 30.3789341 66.0251721 29.9799203 67.4139195 29.9799203 69.2072419 29.9799203 70.9160306 30.4061396 72.2640212 31.2585909 73.2512542 32.1110422 74.2384872 33.2748325 74.7320964 34.7499965 74.7320964 36.0196048 74.7320964 37.3798791 74.3426433 38.8308601 73.5637255L38.8308601 75.1940104C37.5068399 75.8763183 36.0619264 76.2174671 34.4960761 76.2174671zM45.5053392 76.1087814C44.0966785 76.1087814 42.9721851 75.6423434 42.1318253 74.7094535 41.2914655 73.7765636 40.8712919 72.5282005 40.8712919 70.9643267 40.8712919 69.3823386 41.2929769 68.1309565 42.1363596 67.2101428 42.9797423 66.2893292 44.1238841 65.8289292 45.5688194 65.8289292 47.0137546 65.8289292 48.1578964 66.2893292 49.0012791 67.2101428 49.8446618 68.1309565 50.2663468 69.3763006 50.2663468 70.9462125 50.2663468 72.5523531 49.8431504 73.8143017 48.9967448 74.7320964 48.1503392 75.649891 46.986549 76.1087814 45.5053392 76.1087814zM45.532545 74.7683249C47.424866 74.7683249 48.3710124 73.4943002 48.3710124 70.9462125 48.3710124 68.4283154 47.4369574 67.1693857 45.5688194 67.1693857 43.7067271 67.1693857 42.7756949 68.4343534 42.7756949 70.9643267 42.7756949 73.5003382 43.6946358 74.7683249 45.532545 74.7683249zM53.0594712 75.8823529L53.0594712 66.0463006 54.8459826 66.0463006 54.8459826 67.8939568C55.7891203 66.5172649 56.943842 65.8289292 58.3101824 65.8289292 59.1626338 65.8289292 59.8427709 66.0991312 60.3506142 66.6395431 60.8584576 67.1799551 61.1123755 67.9060284 61.1123755 68.8177849L61.1123755 75.8823529 59.325864 75.8823529 59.325864 69.3974418C59.325864 68.666829 59.2185535 68.1460487 59.0039292 67.8350854 58.789305 67.5241221 58.4341223 67.3686428 57.9383704 67.3686428 56.8440889 67.3686428 55.8133033 68.0841496 54.8459826 69.5151846L54.8459826 75.8823529 53.0594712 75.8823529zM64.5856438 75.8823529L64.5856438 66.0463006 66.3721552 66.0463006 66.3721552 67.8939568C67.3152929 66.5172649 68.4700146 65.8289292 69.836355 65.8289292 70.6888063 65.8289292 71.3689435 66.0991312 71.8767868 66.6395431 72.3846302 67.1799551 72.638548 67.9060284 72.638548 68.8177849L72.638548 75.8823529 70.8520366 75.8823529 70.8520366 69.3974418C70.8520366 68.666829 70.7447261 68.1460487 70.5301018 67.8350854 70.3154776 67.5241221 69.9602948 67.3686428 69.464543 67.3686428 68.3702615 67.3686428 67.3394759 68.0841496 66.3721552 69.5151846L66.3721552 75.8823529 64.5856438 75.8823529zM83.3304107 75.5653531C82.1333514 75.9276404 81.1086115 76.1087814 80.2561601 76.1087814 78.8051791 76.1087814 77.6217405 75.6272484 76.7058088 74.6641678 75.789877 73.7010873 75.331918 72.4527242 75.331918 70.9190411 75.331918 69.4276248 75.7354661 68.2049233 76.5425742 67.2509 77.3496824 66.2968766 78.3819794 65.8198721 79.6394963 65.8198721 80.8305099 65.8198721 81.7509621 66.2425343 82.4008807 67.0878715 83.0507992 67.9332086 83.3757537 69.134777 83.3757537 70.6926126L83.3666851 71.245098 77.1547038 71.245098C77.4146712 73.5818515 78.5603244 74.7502106 80.5916978 74.7502106 81.3353256 74.7502106 82.2482207 74.5509556 83.3304107 74.1524395L83.3304107 75.5653531zM77.236321 69.9046415L81.5801737 69.9046415C81.5801737 68.0750904 80.8970137 67.1603286 79.5306733 67.1603286 78.1582871 67.1603286 77.3935107 68.0750904 77.236321 69.9046415zM90.3041532 76.1087814C88.9740873 76.1087814 87.8707537 75.6166818 86.9941194 74.6324678 86.117485 73.6482539 85.6791745 72.4074383 85.6791745 70.9099839 85.6791745 69.3098815 86.1129508 68.0630279 86.9805165 67.1693857 87.8480822 66.2757436 89.0587263 65.8289292 90.6124851 65.8289292 91.3802959 65.8289292 92.2387801 65.9345948 93.1879635 66.1459291L93.1879635 67.6403569C92.1783226 67.3444889 91.3561124 67.1965571 90.7213082 67.1965571 89.8083993 67.1965571 89.0753626 67.5392155 88.5221761 68.2245424 87.9689896 68.9098693 87.6924005 69.8231216 87.6924005 70.9643267 87.6924005 72.0693032 87.9765467 72.9629319 88.5448476 73.6452397 89.1131485 74.3275476 89.8567651 74.6686964 90.7757197 74.6686964 91.5918965 74.6686964 92.4322437 74.4603843 93.2967865 74.0437538L93.2967865 75.5834674C92.1420475 75.9336785 91.144513 76.1087814 90.3041532 76.1087814zM98.9283783 76.1087814C98.0215152 76.1087814 97.3141726 75.849146 96.8063293 75.3298675 96.2984859 74.810589 96.044568 74.0890441 96.044568 73.1652114L96.044568 67.386757 94.8112404 67.386757 94.8112404 66.0463006 96.044568 66.0463006 96.044568 64.2620443 97.8310795 64.0899586 97.8310795 66.0463006 100.406558 66.0463006 100.406558 67.386757 97.8310795 67.386757 97.8310795 72.8391544C97.8310795 74.1252745 98.3872805 74.7683249 99.4996992 74.7683249 99.7354837 74.7683249 100.022653 74.7290777 100.361215 74.6505821L100.361215 75.8823529C99.8110513 76.033306 99.3334439 76.1087814 98.9283783 76.1087814zM102.918556 75.8823529L102.918556 66.0463006 104.705068 66.0463006 104.705068 75.8823529 102.918556 75.8823529zM102.918556 64.2620443L102.918556 62.477788 104.705068 62.477788 104.705068 64.2620443 102.918556 64.2620443zM108.287159 75.8823529L108.287159 66.0463006 110.07367 66.0463006 110.07367 67.8939568C111.016808 66.5172649 112.17153 65.8289292 113.53787 65.8289292 114.390321 65.8289292 115.070459 66.0991312 115.578302 66.6395431 116.086145 67.1799551 116.340063 67.9060284 116.340063 68.8177849L116.340063 75.8823529 114.553552 75.8823529 114.553552 69.3974418C114.553552 68.666829 114.446241 68.1460487 114.231617 67.8350854 114.016993 67.5241221 113.66181 67.3686428 113.166058 67.3686428 112.071777 67.3686428 111.040991 68.0841496 110.07367 69.5151846L110.07367 75.8823529 108.287159 75.8823529zM119.849606 79.1519799L120.058183 77.6032093C121.092007 78.0922972 122.110702 78.3368375 123.114297 78.3368375 125.127533 78.3368375 126.134136 77.2711248 126.134136 75.1396676L126.134136 73.5908969C125.475149 74.9675888 124.392975 75.6559245 122.887582 75.6559245 121.70866 75.6559245 120.771582 75.2272242 120.07632 74.3698108 119.381059 73.5123974 119.033433 72.3561143 119.033433 70.9009268 119.033433 69.4034724 119.429424 68.1837899 120.221418 67.2418428 121.013412 66.2998957 122.038152 65.8289292 123.295668 65.8289292 124.395996 65.8289292 125.342142 66.2757436 126.134136 67.1693857L126.134136 66.0463006 127.929716 66.0463006 127.929716 73.20144C127.929716 74.7411612 127.849611 75.8808397 127.689398 76.6205097 127.529186 77.3601797 127.228414 77.9654924 126.787074 78.436466 126.007172 79.2636888 124.795016 79.677294 123.150571 79.677294 122.001878 79.677294 120.901567 79.502191 119.849606 79.1519799zM126.134136 72.4768689L126.134136 68.3920994C125.348188 67.5769529 124.492726 67.1693857 123.567726 67.1693857 122.745503 67.1693857 122.10164 67.4984585 121.636117 68.1566138 121.170594 68.8147692 120.937836 69.7174549 120.937836 70.8646982 120.937836 73.020308 121.696567 74.0980967 123.214051 74.0980967 124.247875 74.0980967 125.221227 73.5576928 126.134136 72.4768689zM137.683887 76.2174671C136.783069 76.2174671 135.63137 76.021231 134.228756 75.6287531L134.228756 73.7448683C135.740194 74.4452905 136.982578 74.7954963 137.955944 74.7954963 138.705618 74.7954963 139.308673 74.5992603 139.765127 74.2067823 140.221582 73.8143044 140.449805 73.2980526 140.449805 72.6580116 140.449805 72.132695 140.300175 71.6858806 140.00091 71.3175551 139.701646 70.9492297 139.149979 70.5386435 138.345893 70.0857843L137.420898 69.5514131C136.27825 68.8992959 135.472666 68.2849262 135.00412 67.7082855 134.535574 67.1316448 134.301304 66.4599137 134.301304 65.6930722 134.301304 64.6605532 134.676135 63.8107002 135.425809 63.1434877 136.175482 62.4762751 137.130697 62.1426739 138.291482 62.1426739 139.325306 62.1426739 140.416548 62.3147578 141.565241 62.6589308L141.565241 64.3979013C140.150535 63.8423941 139.095567 63.5646446 138.400305 63.5646446 137.741318 63.5646446 137.197208 63.7397475 136.76796 64.0899586 136.338711 64.4401697 136.12409 64.8809461 136.12409 65.4123009 136.12409 65.8591219 136.281277 66.254613 136.595656 66.598786 136.910036 66.942959 137.484374 67.3535452 138.318688 67.8305568L139.279958 68.3739851C140.440743 69.0321405 141.250862 69.6540578 141.710339 70.2397557 142.169816 70.8254536 142.399551 71.5288843 142.399551 72.3500689 142.399551 73.5154266 141.968798 74.4513215 141.107278 75.1577819 140.245758 75.8642422 139.104639 76.2174671 137.683887 76.2174671zM148.067417 76.1087814C147.160554 76.1087814 146.453212 75.849146 145.945368 75.3298675 145.437525 74.810589 145.183607 74.0890441 145.183607 73.1652114L145.183607 67.386757 143.95028 67.386757 143.95028 66.0463006 145.183607 66.0463006 145.183607 64.2620443 146.970119 64.0899586 146.970119 66.0463006 149.545597 66.0463006 149.545597 67.386757 146.970119 67.386757 146.970119 72.8391544C146.970119 74.1252745 147.52632 74.7683249 148.638738 74.7683249 148.874523 74.7683249 149.161692 74.7290777 149.500254 74.6505821L149.500254 75.8823529C148.95009 76.033306 148.472483 76.1087814 148.067417 76.1087814zM158.215165 75.8823529L158.215165 74.0346967C157.265982 75.4174267 156.114283 76.1087814 154.760034 76.1087814 153.901537 76.1087814 153.218377 75.8385795 152.710533 75.2981675 152.20269 74.7577555 151.948772 74.0286632 151.948772 73.1108686L151.948772 66.0463006 153.735284 66.0463006 153.735284 72.5312117C153.735284 73.2678626 153.842594 73.7916619 154.057218 74.1026252 154.271843 74.4135885 154.630048 74.5690679 155.131846 74.5690679 156.220082 74.5690679 157.247844 73.8535611 158.215165 72.422526L158.215165 66.0463006 160.001676 66.0463006 160.001676 75.8823529 158.215165 75.8823529zM169.904572 75.8823529L169.904572 74.0346967C169.179082 75.4174267 168.084817 76.1087814 166.621744 76.1087814 165.436776 76.1087814 164.504233 75.6770621 163.824085 74.8136106 163.143938 73.9501591 162.803869 72.7697238 162.803869 71.2722695 162.803869 69.6359383 163.18928 68.3196473 163.960114 67.3233571 164.730948 66.3270669 165.745108 65.8289292 167.002625 65.8289292 168.169455 65.8289292 169.136761 66.2757436 169.904572 67.1693857L169.904572 61.5811313 171.700152 61.5811313 171.700152 75.8823529 169.904572 75.8823529zM169.904572 68.3920994C168.979572 67.5769529 168.102951 67.1693857 167.274682 67.1693857 165.563734 67.1693857 164.708272 68.4766196 164.708272 71.0911267 164.708272 73.3916514 165.470026 74.5418964 166.993556 74.5418964 167.98506 74.5418964 168.955389 74.0014926 169.904572 72.9206687L169.904572 68.3920994zM182.491769 75.5653531C181.29471 75.9276404 180.26997 76.1087814 179.417519 76.1087814 177.966538 76.1087814 176.783099 75.6272484 175.867167 74.6641678 174.951236 73.7010873 174.493277 72.4527242 174.493277 70.9190411 174.493277 69.4276248 174.896825 68.2049233 175.703933 67.2509 176.511041 66.2968766 177.543338 65.8198721 178.800855 65.8198721 179.991868 65.8198721 180.912321 66.2425343 181.562239 67.0878715 182.212158 67.9332086 182.537112 69.134777 182.537112 70.6926126L182.528044 71.245098 176.316062 71.245098C176.57603 73.5818515 177.721683 74.7502106 179.753056 74.7502106 180.496684 74.7502106 181.409579 74.5509556 182.491769 74.1524395L182.491769 75.5653531zM176.39768 69.9046415L180.741532 69.9046415C180.741532 68.0750904 180.058372 67.1603286 178.692032 67.1603286 177.319646 67.1603286 176.554869 68.0750904 176.39768 69.9046415zM185.620431 75.8823529L185.620431 66.0463006 187.406943 66.0463006 187.406943 67.8939568C188.35008 66.5172649 189.504802 65.8289292 190.871143 65.8289292 191.723594 65.8289292 192.403731 66.0991312 192.911574 66.6395431 193.419418 67.1799551 193.673336 67.9060284 193.673336 68.8177849L193.673336 75.8823529 191.886824 75.8823529 191.886824 69.3974418C191.886824 68.666829 191.779514 68.1460487 191.564889 67.8350854 191.350265 67.5241221 190.995082 67.3686428 190.499331 67.3686428 189.405049 67.3686428 188.374263 68.0841496 187.406943 69.5151846L187.406943 75.8823529 185.620431 75.8823529zM200.102963 76.1087814C199.1961 76.1087814 198.488757 75.849146 197.980914 75.3298675 197.473071 74.810589 197.219153 74.0890441 197.219153 73.1652114L197.219153 67.386757 195.985825 67.386757 195.985825 66.0463006 197.219153 66.0463006 197.219153 64.2620443 199.005664 64.0899586 199.005664 66.0463006 201.581142 66.0463006 201.581142 67.386757 199.005664 67.386757 199.005664 72.8391544C199.005664 74.1252745 199.561865 74.7683249 200.674284 74.7683249 200.910068 74.7683249 201.197237 74.7290777 201.5358 74.6505821L201.5358 75.8823529C200.985636 76.033306 200.508028 76.1087814 200.102963 76.1087814z"/>
  </g>
</svg>
