<svg xmlns="http://www.w3.org/2000/svg" width="138" height="51" viewBox="0 0 138 51">
  <g fill="#0052CC" fill-rule="evenodd">
    <path d="M13.1279108 16.8404715L4.77070313 16.8404715C4.78113664 17.8135512 4.97676221 18.6715225 5.35758569 19.4144113 5.73840916 20.1573 6.24442729 20.717074 6.87565524 21.09375 7.5068832 21.470426 8.2033102 21.6587612 8.96495716 21.6587612 9.47619963 21.6587612 9.94309265 21.5985985 10.3656502 21.4782715 10.7882078 21.3579444 11.1977173 21.1696093 11.594191 20.9132603 11.9906648 20.6569114 12.3558325 20.3822559 12.6897051 20.0892857 13.0235778 19.7963155 13.4565624 19.398719 13.9886719 18.8964844 14.2077758 18.7081464 14.5207767 18.6139788 14.927684 18.6139788 15.3658918 18.6139788 15.7206262 18.734304 15.9918977 18.9749581 16.2631692 19.2156123 16.3988029 19.5556619 16.3988029 19.9951172 16.3988029 20.3822564 16.2475192 20.834784 15.9449471 21.3527134 15.642375 21.8706429 15.1859154 22.3676385 14.5755544 22.8437151 13.9651935 23.3197917 13.1983413 23.7147724 12.2749748 24.0286691 11.3516083 24.3425657 10.2900136 24.4995117 9.09015877 24.4995117 6.34614303 24.4995117 4.21252022 23.7147818 2.68922631 22.1452985 1.1659324 20.5758153.404296875 18.4465815.404296875 15.7575335.404296875 14.4914836.592097416 13.3170046.967704133 12.2340611 1.34331085 11.1511176 1.89106243 10.2225206 2.6109753 9.44824219 3.33088818 8.67396376 4.21772407 8.08018482 5.27150958 7.66688756 6.32529509 7.25359029 7.49383179 7.04694475 8.77715474 7.04694475 10.4465179 7.04694475 11.8784971 7.4000732 13.0731351 8.10634068 14.2677731 8.81260816 15.162434 9.72551059 15.7571447 10.8450753 16.3518553 11.9646401 16.6492061 13.1051142 16.6492061 14.2665318 16.6492061 15.3442437 16.3414219 16.0426533 15.7258443 16.3617815 15.1102666 16.6809098 14.2442974 16.8404715 13.1279108 16.8404715zM4.77070312 14.4077846L12.5175529 14.4077846C12.4132177 12.9429335 12.0193583 11.8469275 11.3359627 11.1197335 10.6525671 10.3925396 9.75268955 10.0289481 8.63630292 10.0289481 7.57208389 10.0289481 6.69828971 10.3977711 6.01489415 11.1354283 5.3314986 11.8730854 4.9167724 12.96386 4.77070312 14.4077846zM31.9551033 22.05113L31.9551033 21.6273717C31.3812597 22.2865546 30.8152498 22.8227867 30.2570565 23.236084 29.6988631 23.6493813 29.0937281 23.9632732 28.4416331 24.1777693 27.7895381 24.3922653 27.077461 24.4995117 26.3053805 24.4995117 25.2828956 24.4995117 24.3360679 24.2824031 23.464869 23.8481794 22.59367 23.4139557 21.8398595 22.7940191 21.2034148 21.988351 20.5669701 21.1826829 20.084427 20.2357755 19.7557712 19.1476004 19.4271153 18.0594254 19.2627898 16.8823305 19.2627898 15.6162807 19.2627898 12.9376959 19.914875 10.8503144 21.219065 9.35407366 22.523255 7.85783292 24.2395433 7.10972377 26.3679814 7.10972377 27.5991367 7.10972377 28.6372564 7.32160084 29.4823715 7.74536133 30.3274866 8.16912182 31.1517223 8.82044761 31.9551033 9.69935826L31.9551033 3.37437221C31.9551033 2.49546157 32.1298622 1.83105694 32.4793851 1.38113839 32.828908.931219849 33.3271011.706263951 33.9739793.706263951 34.6208576.706263951 35.1190507.912909485 35.4685736 1.32620675 35.8180965 1.73950402 35.9928553 2.34897756 35.9928553 3.15464565L35.9928553 22.05113C35.9928553 22.8672613 35.8050548 23.4793506 35.4294481 23.8874163 35.0538414 24.295482 34.56869 24.4995117 33.9739793 24.4995117 33.3897022 24.4995117 32.9071592 24.2876347 32.5263357 23.8638742 32.1455122 23.4401137 31.9551033 22.8358717 31.9551033 22.05113zM23.5509451 15.7575335C23.5509451 16.9189511 23.7309206 17.9077108 24.090877 18.7238421 24.4508335 19.5399734 24.9438099 20.1546785 25.5698211 20.5679757 26.1958323 20.981273 26.8792176 21.1879185 27.6199975 21.1879185 28.3712109 21.1879185 29.0572046 20.9917361 29.677999 20.5993652 30.2987934 20.2069944 30.7943782 19.6053682 31.1647681 18.7944685 31.5351581 17.9835688 31.7203503 16.9712672 31.7203503 15.7575335 31.7203503 14.6170423 31.5351581 13.6361299 31.1647681 12.814767 30.7943782 11.9934041 30.2935767 11.3656202 29.6623488 10.9313965 29.0311208 10.4971728 28.3399105 10.2800642 27.5886971 10.2800642 26.8061831 10.2800642 26.1071477 10.5024043 25.4915701 10.9470912 24.8759924 11.3917782 24.398666 12.0300251 24.0595766 12.8618513 23.7204872 13.6936774 23.5509451 14.6588952 23.5509451 15.7575335zM51.3770035 22.0825195L51.3770035 21.5332031C50.8657611 22.1819229 50.3284428 22.7260023 49.7650328 23.1654576 49.2016227 23.6049129 48.5860542 23.9318837 47.918309 24.1463797 47.2505637 24.3608758 46.4889282 24.4681222 45.6333795 24.4681222 44.6004611 24.4681222 43.6745001 24.2536294 42.8554688 23.8246373 42.0364374 23.3956452 41.4026106 22.804482 40.9539693 22.05113 40.4218597 21.1408297 40.155809 19.8329466 40.155809 18.1274414L40.155809 9.63657924C40.155809 8.77859504 40.3488262 8.13773231 40.7348664 7.71397182 41.1209067 7.29021133 41.6321415 7.07833426 42.2685862 7.07833426 42.9154644 7.07833426 43.4371326 7.2928271 43.8336064 7.7218192 44.2300801 8.1508113 44.428314 8.78905826 44.428314 9.63657924L44.428314 16.4951869C44.428314 17.489193 44.5117809 18.3236225 44.6787172 18.9985003 44.8456536 19.6733781 45.1456128 20.2017629 45.5786038 20.5836705 46.0115949 20.9655781 46.5984716 21.156529 47.3392515 21.156529 48.0591644 21.156529 48.737333 20.9420362 49.3737777 20.5130441 50.0102224 20.084052 50.4745071 19.524278 50.7666457 18.8337054 51.0066166 18.2268385 51.1266003 16.8980292 51.1266003 14.8472377L51.1266003 9.63657924C51.1266003 8.78905826 51.3248342 8.1508113 51.721308 7.7218192 52.1177817 7.2928271 52.6342332 7.07833426 53.2706779 7.07833426 53.9071226 7.07833426 54.4183574 7.29021133 54.8043977 7.71397182 55.1904379 8.13773231 55.3834551 8.77859504 55.3834551 9.63657924L55.3834551 22.05113C55.3834551 22.8672613 55.1982629 23.4793506 54.827873 23.8874163 54.457483 24.295482 53.9801567 24.4995117 53.3958795 24.4995117 52.8116024 24.4995117 52.3290594 24.2876347 51.9482359 23.8638742 51.5674124 23.4401137 51.3770035 22.8463347 51.3770035 22.0825195zM63.8815146 18.3157785L63.8815146 21.8941825C63.8815146 22.7626299 63.678064 23.4139557 63.2711568 23.8481794 62.8642495 24.2824031 62.347798 24.4995117 61.7217868 24.4995117 61.1062091 24.4995117 60.600191 24.2797874 60.2037172 23.840332 59.8072435 23.4008767 59.6090096 22.7521667 59.6090096 21.8941825L59.6090096 9.96616908C59.6090096 8.04093624 60.3028282 7.07833426 61.6904864 7.07833426 62.3999657 7.07833426 62.9112006 7.30329016 63.2242061 7.75320871 63.5372117 8.20312725 63.7093622 8.86753188 63.7406628 9.74644252 64.2519053 8.86753188 64.7761818 8.20312725 65.3135081 7.75320871 65.8508343 7.30329016 66.5681281 7.07833426 67.4654108 7.07833426 68.3626935 7.07833426 69.2338793 7.30329016 70.0789945 7.75320871 70.9241096 8.20312725 71.3466608 8.79952196 71.3466608 9.54241071 71.3466608 10.0655718 71.1666853 10.4971732 70.8067288 10.837228 70.4467724 11.1772827 70.0581296 11.3473075 69.6407888 11.3473075 69.484286 11.3473075 69.1060766 11.2505241 68.5061492 11.0569545 67.9062218 10.8633849 67.3767286 10.7666016 66.9176537 10.7666016 66.2916425 10.7666016 65.7804077 10.9313948 65.383934 11.2609863 64.9874602 11.5905778 64.679676 12.0797261 64.4605721 12.7284459 64.2414682 13.3771656 64.0901844 14.1488167 64.0067162 15.0434222 63.9232481 15.9380276 63.8815146 17.0288022 63.8815146 18.3157785zM127.95344 16.1028181L127.95344 21.800014C127.95344 22.699851 127.749989 23.3747187 127.343082 23.8246373 126.936175 24.2745558 126.398857 24.4995117 125.731111 24.4995117 125.084233 24.4995117 124.559957 24.2745558 124.158266 23.8246373 123.756576 23.3747187 123.555733 22.699851 123.555733 21.800014L123.555733 14.9727958C123.555733 13.8950839 123.519217 13.0580387 123.446182 12.461635 123.373147 11.8652314 123.174913 11.3760831 122.851474 10.9941755 122.528035 10.6122679 122.0168 10.421317 121.317755 10.421317 119.919663 10.421317 118.998919 10.902618 118.555494 11.8652344 118.112069 12.8278508 117.89036 14.2089754 117.89036 16.0086496L117.89036 21.800014C117.89036 22.6893878 117.689518 23.3616397 117.287828 23.8167899 116.886137 24.2719401 116.356644 24.4995117 115.699332 24.4995117 115.052454 24.4995117 114.522961 24.2719401 114.110837 23.8167899 113.698713 23.3616397 113.492654 22.6893878 113.492654 21.800014L113.492654 9.54241071C113.492654 8.73674262 113.677846 8.12465332 114.048236 7.70612444 114.418626 7.28759556 114.906386 7.07833426 115.51153 7.07833426 116.095807 7.07833426 116.583567 7.27451673 116.974824 7.66688756 117.366081 8.05925838 117.561706 8.60072199 117.561706 9.29129464L117.561706 9.69935826C118.302486 8.80998439 119.095422 8.15604283 119.940537 7.73751395 120.785652 7.31898507 121.724655 7.10972377 122.757573 7.10972377 123.832226 7.10972377 124.755578 7.32421661 125.527659 7.75320871 126.299739 8.18220081 126.936174 8.83091084 127.436983 9.69935826 128.156896 8.82044761 128.928965 8.16912182 129.753213 7.74536133 130.577461 7.32160084 131.490381 7.10972377 132.491998 7.10972377 133.660553 7.10972377 134.667372 7.3399112 135.512487 7.80029297 136.357603 8.26067473 136.988821 8.91984783 137.406162 9.77783203 137.771335 10.5521105 137.953919 11.7710575 137.953919 13.4347098L137.953919 21.800014C137.953919 22.699851 137.750468 23.3747187 137.343561 23.8246373 136.936654 24.2745558 136.399335 24.4995117 135.73159 24.4995117 135.084712 24.4995117 134.555219 24.2719401 134.143095 23.8167899 133.730971 23.3616397 133.524912 22.6893878 133.524912 21.800014L133.524912 14.5961217C133.524912 13.6753581 133.485787 12.937712 133.407535 12.3831613 133.329284 11.8286105 133.118008 11.3630041 132.773702 10.9863281 132.429396 10.6096521 131.907728 10.421317 131.208682 10.421317 130.645272 10.421317 130.110562 10.588726 129.604536 10.9235491 129.098511 11.2583722 128.704651 11.708284 128.422946 12.273298 128.10994 12.9952603 127.95344 14.2717542 127.95344 16.1028181zM83.6494582 6.95626395C86.2150711 6.95626395 88.2960822 8.13168484 89.8344178 9.69063895 91.3727537 11.2495931 92.477563 13.1504604 93.5348211 14.9361747 94.5920791 16.721889 95.601786 18.3924497 96.7065953 19.5120675 97.8114046 20.6316854 98.9021684 21.2419782 100.565587 21.2419782 103.364437 21.2419782 105.640426 18.83938 105.640426 15.8848354 105.640426 12.8491211 103.441329 10.5276925 100.565587 10.5276925 98.1973291 10.5276925 96.5730331 11.7766078 95.0505814 14.0980363 94.042465 14.0980363 93.8183655 13.9471054 93.5348211 13.8509205 92.9531719 13.6466569 92.310181 12.2576032 93.1119178 11.0857282 94.972692 8.76429967 97.1823614 6.95626395 100.565587 6.95626395 105.302103 6.95626395 109.023652 10.8848354 109.023652 15.8848354 109.023652 20.7874336 105.209834 24.8134068 100.565587 24.8134068 97.9999737 24.8134068 95.9189634 23.6379854 94.3806275 22.0790318 92.8422917 20.5200782 91.7374824 18.6192104 90.6802243 16.8334961 89.6229662 15.0477818 88.6132596 13.3772211 87.5084501 12.2576032 86.4036406 11.1379859 85.3128775 10.5276925 83.6494582 10.5276925 80.8506076 10.5276925 78.5746195 12.9302907 78.5746195 15.8848354 78.5746195 18.9205497 80.7737162 21.2419782 83.6494582 21.2419782 86.0177162 21.2419782 87.5190227 19.6459961 89.0414743 17.503139 89.8344178 17.7035888 90.195553 18.0003847 90.2409821 18.0340903 90.9631155 18.6477298 91.3582011 19.5120675 91.097385 20.6361277 89.2366108 22.9575563 87.032684 24.8134068 83.6494582 24.8134068 78.912942 24.8134068 75.1913936 20.8848354 75.1913936 15.8848354 75.1913936 10.9822381 79.0052119 6.95626395 83.6494582 6.95626395zM15.8457031 37.2011719C14.9042922 37.2011719 14.1611355 37.5146453 13.6162109 38.1416016 13.0712863 38.7685578 12.7988281 39.6269477 12.7988281 40.7167969 12.7988281 41.8378962 13.0615208 42.7040985 13.5869141 43.3154297 14.1123073 43.9267609 14.8613233 44.2324219 15.8339844 44.2324219 16.4316436 44.2324219 17.1132774 44.1250011 17.8789062 43.9101562L17.8789062 44.7832031C17.2851533 45.0058605 16.5527387 45.1171875 15.6816406 45.1171875 14.4199156 45.1171875 13.4462925 44.7343788 12.7607422 43.96875 12.0751919 43.2031212 11.7324219 42.1152414 11.7324219 40.7050781 11.7324219 39.8222612 11.8974593 39.0488314 12.2275391 38.3847656 12.5576188 37.7206998 13.0341766 37.2089862 13.6572266 36.8496094 14.2802766 36.4902326 15.0136677 36.3105469 15.8574219 36.3105469 16.7558639 36.3105469 17.5410123 36.4746077 18.2128906 36.8027344L17.7910156 37.6582031C17.1425749 37.3535141 16.4941439 37.2011719 15.8457031 37.2011719zM25.1445313 41.7832031C25.1445313 42.8300834 24.880862 43.647458 24.3535156 44.2353516 23.8261692 44.8232451 23.0976609 45.1171875 22.1679688 45.1171875 21.5937471 45.1171875 21.0839866 44.9824232 20.6386719 44.7128906 20.1933571 44.443358 19.8496106 44.0566431 19.6074219 43.5527344 19.3652332 43.0488256 19.2441406 42.4589878 19.2441406 41.7832031 19.2441406 40.7363229 19.5058568 39.9209014 20.0292969 39.3369141 20.552737 38.7529268 21.2792922 38.4609375 22.2089844 38.4609375 23.1074264 38.4609375 23.8212864 38.7597626 24.3505859 39.3574219 24.8798855 39.9550811 25.1445313 40.7636668 25.1445313 41.7832031zM20.2519531 41.7832031C20.2519531 42.6035197 20.416014 43.2285135 20.7441406 43.6582031 21.0722673 44.0878928 21.5546843 44.3027344 22.1914062 44.3027344 22.8281282 44.3027344 23.3115218 44.0888693 23.6416016 43.6611328 23.9716813 43.2333963 24.1367188 42.607426 24.1367188 41.7832031 24.1367188 40.9667928 23.9716813 40.3466818 23.6416016 39.9228516 23.3115218 39.4990213 22.824222 39.2871094 22.1796875 39.2871094 21.5429656 39.2871094 21.0625016 39.4960917 20.7382812 39.9140625 20.4140609 40.3320333 20.2519531 40.955074 20.2519531 41.7832031zM31.2441406 45L31.2441406 40.8457031C31.2441406 40.322263 31.1250012 39.9316419 30.8867188 39.6738281 30.6484363 39.4160143 30.2753932 39.2871094 29.7675781 39.2871094 29.0956998 39.2871094 28.6035172 39.4687482 28.2910156 39.8320312 27.9785141 40.1953143 27.8222656 40.7949177 27.8222656 41.6308594L27.8222656 45 26.8496094 45 26.8496094 38.578125 27.640625 38.578125 27.7988281 39.4570312 27.8457031 39.4570312C28.0449229 39.1406234 28.324217 38.8955087 28.6835938 38.7216797 29.0429705 38.5478507 29.4433572 38.4609375 29.8847656 38.4609375 30.658207 38.4609375 31.2402324 38.6474591 31.6308594 39.0205078 32.0214863 39.3935566 32.2167969 39.9902303 32.2167969 40.8105469L32.2167969 45 31.2441406 45zM38.609375 45L38.609375 40.8457031C38.609375 40.322263 38.4902356 39.9316419 38.2519531 39.6738281 38.0136707 39.4160143 37.6406275 39.2871094 37.1328125 39.2871094 36.4609341 39.2871094 35.9687516 39.4687482 35.65625 39.8320312 35.3437484 40.1953143 35.1875 40.7949177 35.1875 41.6308594L35.1875 45 34.2148438 45 34.2148438 38.578125 35.0058594 38.578125 35.1640625 39.4570312 35.2109375 39.4570312C35.4101572 39.1406234 35.6894513 38.8955087 36.0488281 38.7216797 36.4082049 38.5478507 36.8085915 38.4609375 37.25 38.4609375 38.0234414 38.4609375 38.6054668 38.6474591 38.9960938 39.0205078 39.3867207 39.3935566 39.5820312 39.9902303 39.5820312 40.8105469L39.5820312 45 38.609375 45zM44.2929688 45.1171875C43.3437453 45.1171875 42.5947293 44.8281279 42.0458984 44.25 41.4970676 43.6718721 41.2226562 42.8691458 41.2226562 41.8417969 41.2226562 40.8066354 41.4775365 39.984378 41.9873047 39.375 42.4970729 38.765622 43.1816363 38.4609375 44.0410156 38.4609375 44.8457071 38.4609375 45.4824195 38.7255833 45.9511719 39.2548828 46.4199242 39.7841823 46.6542969 40.4824175 46.6542969 41.3496094L46.6542969 41.9648438 42.2304688 41.9648438C42.2500001 42.7187538 42.4404279 43.2910137 42.8017578 43.6816406 43.1630877 44.0722676 43.6718717 44.2675781 44.328125 44.2675781 45.0195347 44.2675781 45.7031216 44.1230483 46.3789062 43.8339844L46.3789062 44.7011719C46.0351545 44.8496101 45.7099625 44.9560544 45.4033203 45.0205078 45.0966782 45.0849613 44.7265647 45.1171875 44.2929688 45.1171875zM44.0292969 39.2753906C43.5136693 39.2753906 43.1025406 39.4433577 42.7958984 39.7792969 42.4892563 40.1152361 42.308594 40.5800752 42.2539062 41.1738281L45.6113281 41.1738281C45.6113281 40.5605438 45.4746107 40.0908219 45.2011719 39.7646484 44.927733 39.4384749 44.5371119 39.2753906 44.0292969 39.2753906zM50.8789063 45.1171875C49.9492141 45.1171875 49.2294947 44.8310575 48.7197266 44.2587891 48.2099584 43.6865206 47.9550781 42.8769584 47.9550781 41.8300781 47.9550781 40.755854 48.2138646 39.9257842 48.7314453 39.3398438 49.249026 38.7539033 49.9863233 38.4609375 50.9433594 38.4609375 51.2519547 38.4609375 51.5605453 38.4941403 51.8691406 38.5605469 52.1777359 38.6269535 52.419921 38.7050777 52.5957031 38.7949219L52.296875 39.6210938C52.0820302 39.5351558 51.8476575 39.4638675 51.59375 39.4072266 51.3398425 39.3505857 51.1152354 39.3222656 50.9199219 39.3222656 49.6152279 39.3222656 48.9628906 40.1542886 48.9628906 41.8183594 48.9628906 42.6074258 49.1220687 43.2128885 49.4404297 43.6347656 49.7587907 44.0566427 50.2304656 44.2675781 50.8554688 44.2675781 51.3906277 44.2675781 51.9394503 44.1523449 52.5019531 43.921875L52.5019531 44.7832031C52.0722635 45.0058605 51.5312533 45.1171875 50.8789063 45.1171875zM56.0996094 44.3144531C56.2714852 44.3144531 56.4374992 44.3017579 56.5976563 44.2763672 56.7578133 44.2509764 56.8847652 44.2246095 56.9785156 44.1972656L56.9785156 44.9414062C56.8730463 44.9921878 56.7177745 45.0341795 56.5126953 45.0673828 56.3076162 45.1005861 56.1230477 45.1171875 55.9589844 45.1171875 54.7167907 45.1171875 54.0957031 44.4628972 54.0957031 43.1542969L54.0957031 39.3339844 53.1757813 39.3339844 53.1757813 38.8652344 54.0957031 38.4609375 54.5058594 37.0898438 55.0683594 37.0898438 55.0683594 38.578125 56.9316406 38.578125 56.9316406 39.3339844 55.0683594 39.3339844 55.0683594 43.1132812C55.0683594 43.5000019 55.1601553 43.796874 55.34375 44.0039062 55.5273447 44.2109385 55.7792953 44.3144531 56.0996094 44.3144531zM59.234375 45L58.2617188 45 58.2617188 38.578125 59.234375 38.578125 59.234375 45zM58.1796875 36.8378906C58.1796875 36.6152333 58.2343745 36.452149 58.34375 36.3486328 58.4531255 36.2451167 58.5898429 36.1933594 58.7539062 36.1933594 58.910157 36.1933594 59.0449213 36.2460932 59.1582031 36.3515625 59.2714849 36.4570318 59.328125 36.6191395 59.328125 36.8378906 59.328125 37.0566417 59.2714849 37.219726 59.1582031 37.3271484 59.0449213 37.4345708 58.910157 37.4882812 58.7539062 37.4882812 58.5898429 37.4882812 58.4531255 37.4345708 58.34375 37.3271484 58.2343745 37.219726 58.1796875 37.0566417 58.1796875 36.8378906zM65.6914062 45L65.6914062 40.8457031C65.6914062 40.322263 65.5722668 39.9316419 65.3339844 39.6738281 65.0957019 39.4160143 64.7226588 39.2871094 64.2148438 39.2871094 63.5429654 39.2871094 63.0507828 39.4687482 62.7382812 39.8320312 62.4257797 40.1953143 62.2695312 40.7949177 62.2695312 41.6308594L62.2695312 45 61.296875 45 61.296875 38.578125 62.0878906 38.578125 62.2460938 39.4570312 62.2929688 39.4570312C62.4921885 39.1406234 62.7714826 38.8955087 63.1308594 38.7216797 63.4902362 38.5478507 63.8906228 38.4609375 64.3320312 38.4609375 65.1054726 38.4609375 65.687498 38.6474591 66.078125 39.0205078 66.468752 39.3935566 66.6640625 39.9902303 66.6640625 40.8105469L66.6640625 45 65.6914062 45zM73.9179688 38.578125L73.9179688 39.1933594 72.7285156 39.3339844C72.8378912 39.4707038 72.9355464 39.649413 73.0214844 39.8701172 73.1074223 40.0908214 73.1503906 40.3398424 73.1503906 40.6171875 73.1503906 41.2460969 72.935549 41.748045 72.5058594 42.1230469 72.0761697 42.4980487 71.4863319 42.6855469 70.7363281 42.6855469 70.5449209 42.6855469 70.3652352 42.669922 70.1972656 42.6386719 69.7832011 42.857423 69.5761719 43.1328108 69.5761719 43.4648438 69.5761719 43.6406259 69.6484368 43.7705074 69.7929688 43.8544922 69.9375007 43.938477 70.1855451 43.9804688 70.5371094 43.9804688L71.6738281 43.9804688C72.3691441 43.9804688 72.9033184 44.1269517 73.2763672 44.4199219 73.6494159 44.7128921 73.8359375 45.1386691 73.8359375 45.6972656 73.8359375 46.4082067 73.5507841 46.9501934 72.9804688 47.3232422 72.4101534 47.6962909 71.5781305 47.8828125 70.484375 47.8828125 69.6445271 47.8828125 68.9970726 47.7265641 68.5419922 47.4140625 68.0869118 47.1015609 67.859375 46.6601591 67.859375 46.0898438 67.859375 45.6992168 67.9843738 45.3613296 68.234375 45.0761719 68.4843762 44.7910142 68.8359352 44.5976568 69.2890625 44.4960938 69.1249992 44.4218746 68.9873052 44.3066414 68.8759766 44.1503906 68.7646479 43.9941398 68.7089844 43.812501 68.7089844 43.6054688 68.7089844 43.3710926 68.7714838 43.1660165 68.8964844 42.9902344 69.021485 42.8144522 69.2187487 42.6445321 69.4882812 42.4804688 69.1562483 42.3437493 68.8857432 42.1113298 68.6767578 41.7832031 68.4677724 41.4550765 68.3632812 41.0800802 68.3632812 40.6582031 68.3632812 39.9550746 68.5742166 39.4130878 68.9960938 39.0322266 69.4179709 38.6513653 70.0156211 38.4609375 70.7890625 38.4609375 71.1250017 38.4609375 71.427733 38.4999996 71.6972656 38.578125L73.9179688 38.578125zM68.796875 46.078125C68.796875 46.425783 68.9433579 46.6894522 69.2363281 46.8691406 69.5292983 47.048829 69.949216 47.1386719 70.4960938 47.1386719 71.3125041 47.1386719 71.9169902 47.0166028 72.3095703 46.7724609 72.7021504 46.5283191 72.8984375 46.1972677 72.8984375 45.7792969 72.8984375 45.4316389 72.7910167 45.1904304 72.5761719 45.0556641 72.3613271 44.9208978 71.9570342 44.8535156 71.3632812 44.8535156L70.1972656 44.8535156C69.7558572 44.8535156 69.4121106 44.9589833 69.1660156 45.1699219 68.9199206 45.3808604 68.796875 45.6835918 68.796875 46.078125zM69.3242188 40.6347656C69.3242188 41.0839866 69.4511706 41.423827 69.7050781 41.6542969 69.9589856 41.8847668 70.3124977 42 70.765625 42 71.7148485 42 72.1894531 41.5390671 72.1894531 40.6171875 72.1894531 39.6523389 71.7089892 39.1699219 70.7480469 39.1699219 70.2910133 39.1699219 69.9394544 39.2929675 69.6933594 39.5390625 69.4472644 39.7851575 69.3242188 40.1503882 69.3242188 40.6347656zM83.3339844 42.7207031C83.3339844 43.4746131 83.0605496 44.0624979 82.5136719 44.484375 81.9667941 44.9062521 81.2246141 45.1171875 80.2871094 45.1171875 79.2714793 45.1171875 78.4902371 44.9863294 77.9433594 44.7246094L77.9433594 43.7636719C78.2949236 43.9121101 78.6777323 44.0292964 79.0917969 44.1152344 79.5058614 44.2011723 79.9160136 44.2441406 80.3222656 44.2441406 80.9863314 44.2441406 81.4863264 44.1181653 81.8222656 43.8662109 82.1582048 43.6142566 82.3261719 43.2636741 82.3261719 42.8144531 82.3261719 42.5175766 82.2666022 42.274415 82.1474609 42.0849609 82.0283197 41.8955069 81.829103 41.7207039 81.5498047 41.5605469 81.2705064 41.4003898 80.845706 41.218751 80.2753906 41.015625 79.4785116 40.7304673 78.9091814 40.3925801 78.5673828 40.0019531 78.2255842 39.6113262 78.0546875 39.1015656 78.0546875 38.4726562 78.0546875 37.8124967 78.3027319 37.2871113 78.7988281 36.8964844 79.2949244 36.5058574 79.9511678 36.3105469 80.7675781 36.3105469 81.6191449 36.3105469 82.4023402 36.4667953 83.1171875 36.7792969L82.8066406 37.6464844C82.0996058 37.3496079 81.4121127 37.2011719 80.7441406 37.2011719 80.2167942 37.2011719 79.804689 37.314452 79.5078125 37.5410156 79.210936 37.7675793 79.0625 38.0820292 79.0625 38.484375 79.0625 38.7812515 79.117187 39.0244131 79.2265625 39.2138672 79.335938 39.4033213 79.5205065 39.5771476 79.7802734 39.7353516 80.0400404 39.8935555 80.4374973 40.0683584 80.9726563 40.2597656 81.8710982 40.5800797 82.4892561 40.9238263 82.8271484 41.2910156 83.1650408 41.658205 83.3339844 42.1347627 83.3339844 42.7207031zM87.0136719 44.3144531C87.1855477 44.3144531 87.3515617 44.3017579 87.5117188 44.2763672 87.6718758 44.2509764 87.7988277 44.2246095 87.8925781 44.1972656L87.8925781 44.9414062C87.7871088 44.9921878 87.631837 45.0341795 87.4267578 45.0673828 87.2216787 45.1005861 87.0371102 45.1171875 86.8730469 45.1171875 85.6308532 45.1171875 85.0097656 44.4628972 85.0097656 43.1542969L85.0097656 39.3339844 84.0898438 39.3339844 84.0898438 38.8652344 85.0097656 38.4609375 85.4199219 37.0898438 85.9824219 37.0898438 85.9824219 38.578125 87.8457031 38.578125 87.8457031 39.3339844 85.9824219 39.3339844 85.9824219 43.1132812C85.9824219 43.5000019 86.0742178 43.796874 86.2578125 44.0039062 86.4414072 44.2109385 86.6933578 44.3144531 87.0136719 44.3144531zM90.0898438 38.578125L90.0898438 42.7441406C90.0898438 43.2675807 90.2089832 43.6582018 90.4472656 43.9160156 90.6855481 44.1738294 91.0585912 44.3027344 91.5664062 44.3027344 92.2382846 44.3027344 92.7294906 44.1191425 93.0400391 43.7519531 93.3505875 43.3847638 93.5058594 42.7851604 93.5058594 41.953125L93.5058594 38.578125 94.4785156 38.578125 94.4785156 45 93.6757812 45 93.5351562 44.1386719 93.4824219 44.1386719C93.2832021 44.4550797 93.0068377 44.6972648 92.6533203 44.8652344 92.2998029 45.033204 91.8964866 45.1171875 91.4433594 45.1171875 90.6621055 45.1171875 90.0771504 44.9316425 89.6884766 44.5605469 89.2998027 44.1894513 89.1054688 43.5957072 89.1054688 42.7792969L89.1054688 38.578125 90.0898438 38.578125zM100.912109 44.1386719L100.859375 44.1386719C100.410154 44.7910189 99.7382857 45.1171875 98.84375 45.1171875 98.0039021 45.1171875 97.3505883 44.830081 96.8837891 44.2558594 96.4169899 43.6816378 96.1835938 42.8652397 96.1835938 41.8066406 96.1835938 40.7480416 96.4179664 39.9257842 96.8867188 39.3398438 97.3554711 38.7539033 98.0078083 38.4609375 98.84375 38.4609375 99.7148481 38.4609375 100.38281 38.7773406 100.847656 39.4101562L100.923828 39.4101562 100.882812 38.9472656 100.859375 38.4960938 100.859375 35.8828125 101.832031 35.8828125 101.832031 45 101.041016 45 100.912109 44.1386719zM98.9667969 44.3027344C99.6308627 44.3027344 100.112303 44.1220721 100.411133 43.7607422 100.709962 43.3994123 100.859375 42.8164103 100.859375 42.0117188L100.859375 41.8066406C100.859375 40.8964798 100.708009 40.2470723 100.405273 39.8583984 100.102538 39.4697246 99.6191439 39.2753906 98.9550781 39.2753906 98.3847628 39.2753906 97.9482437 39.4970681 97.6455078 39.9404297 97.3427719 40.3837913 97.1914063 41.0097616 97.1914063 41.8183594 97.1914063 42.638676 97.3417954 43.2578104 97.6425781 43.6757812 97.9433609 44.0937521 98.3847627 44.3027344 98.9667969 44.3027344zM106.607422 45.1171875C105.658198 45.1171875 104.909182 44.8281279 104.360352 44.25 103.811521 43.6718721 103.537109 42.8691458 103.537109 41.8417969 103.537109 40.8066354 103.79199 39.984378 104.301758 39.375 104.811526 38.765622 105.496089 38.4609375 106.355469 38.4609375 107.16016 38.4609375 107.796873 38.7255833 108.265625 39.2548828 108.734377 39.7841823 108.96875 40.4824175 108.96875 41.3496094L108.96875 41.9648438 104.544922 41.9648438C104.564453 42.7187538 104.754881 43.2910137 105.116211 43.6816406 105.477541 44.0722676 105.986325 44.2675781 106.642578 44.2675781 107.333988 44.2675781 108.017575 44.1230483 108.693359 43.8339844L108.693359 44.7011719C108.349608 44.8496101 108.024416 44.9560544 107.717773 45.0205078 107.411131 45.0849613 107.041018 45.1171875 106.607422 45.1171875zM106.34375 39.2753906C105.828122 39.2753906 105.416994 39.4433577 105.110352 39.7792969 104.803709 40.1152361 104.623047 40.5800752 104.568359 41.1738281L107.925781 41.1738281C107.925781 40.5605438 107.789064 40.0908219 107.515625 39.7646484 107.242186 39.4384749 106.851565 39.2753906 106.34375 39.2753906zM115.021484 45L115.021484 40.8457031C115.021484 40.322263 114.902345 39.9316419 114.664063 39.6738281 114.42578 39.4160143 114.052737 39.2871094 113.544922 39.2871094 112.873044 39.2871094 112.380861 39.4687482 112.068359 39.8320312 111.755858 40.1953143 111.599609 40.7949177 111.599609 41.6308594L111.599609 45 110.626953 45 110.626953 38.578125 111.417969 38.578125 111.576172 39.4570312 111.623047 39.4570312C111.822267 39.1406234 112.101561 38.8955087 112.460938 38.7216797 112.820314 38.5478507 113.220701 38.4609375 113.662109 38.4609375 114.435551 38.4609375 115.017576 38.6474591 115.408203 39.0205078 115.79883 39.3935566 115.994141 39.9902303 115.994141 40.8105469L115.994141 45 115.021484 45zM120.066406 44.3144531C120.238282 44.3144531 120.404296 44.3017579 120.564453 44.2763672 120.72461 44.2509764 120.851562 44.2246095 120.945312 44.1972656L120.945312 44.9414062C120.839843 44.9921878 120.684571 45.0341795 120.479492 45.0673828 120.274413 45.1005861 120.089845 45.1171875 119.925781 45.1171875 118.683588 45.1171875 118.0625 44.4628972 118.0625 43.1542969L118.0625 39.3339844 117.142578 39.3339844 117.142578 38.8652344 118.0625 38.4609375 118.472656 37.0898438 119.035156 37.0898438 119.035156 38.578125 120.898438 38.578125 120.898438 39.3339844 119.035156 39.3339844 119.035156 43.1132812C119.035156 43.5000019 119.126952 43.796874 119.310547 44.0039062 119.494142 44.2109385 119.746092 44.3144531 120.066406 44.3144531zM126.371094 43.2480469C126.371094 43.8457061 126.14844 44.306639 125.703125 44.6308594 125.25781 44.9550797 124.632817 45.1171875 123.828125 45.1171875 122.976558 45.1171875 122.312502 44.9824232 121.835938 44.7128906L121.835938 43.8105469C122.144533 43.9667977 122.475584 44.0898433 122.829102 44.1796875 123.182619 44.2695317 123.523436 44.3144531 123.851562 44.3144531 124.359378 44.3144531 124.749999 44.2333992 125.023438 44.0712891 125.296876 43.9091789 125.433594 43.662111 125.433594 43.3300781 125.433594 43.0800769 125.325196 42.8662118 125.108398 42.6884766 124.8916 42.5107413 124.468753 42.3007825 123.839844 42.0585938 123.242185 41.8359364 122.817384 41.6416024 122.56543 41.4755859 122.313475 41.3095695 122.125977 41.1210948 122.00293 40.9101562 121.879882 40.6992177 121.818359 40.4472671 121.818359 40.1542969 121.818359 39.6308568 122.031248 39.217775 122.457031 38.9150391 122.882815 38.6123032 123.466793 38.4609375 124.208984 38.4609375 124.900394 38.4609375 125.576169 38.6015611 126.236328 38.8828125L125.890625 39.6738281C125.246091 39.4082018 124.662112 39.2753906 124.138672 39.2753906 123.677732 39.2753906 123.330079 39.3476555 123.095703 39.4921875 122.861327 39.6367195 122.744141 39.8359362 122.744141 40.0898438 122.744141 40.2617196 122.788085 40.4082025 122.875977 40.5292969 122.963868 40.6503912 123.105468 40.7656245 123.300781 40.875 123.496095 40.9843755 123.871091 41.1425771 124.425781 41.3496094 125.187504 41.6269545 125.702147 41.9062486 125.969727 42.1875 126.237306 42.4687514 126.371094 42.8222635 126.371094 43.2480469z"/>
  </g>
</svg>
